Rocky 1976 BluRay 1080p DTS x264-LoNeWoLf

Encoded by Tequila-Bob a.k.a. bobnjeff a.k.a.LoNeWoLf

Source - NTSC BluRay Disc.

 
http://www.imdb.com/title/tt0075148/

Rocky (1976) 
  119 min  -  Drama | Romance | Sport   -  3 December 1976 (USA) 
  8.1/10 X  Users: 8.1/10 (102,051 votes) 415 reviews | Critics: 88 reviews 
  A small time boxer gets a once in a lifetime chance to fight the heavyweight champ in a bout in which he strives to go the distance for his self-respect. 

Director: John G. Avildsen
Writer: Sylvester Stallone
Stars:Sylvester Stallone, Talia Shire and Burt Young

 Won 3 Oscars. Another 15 wins & 19 nominations 

Release Date:3 December 1976 (USA)

MPAA: Rated PG For Boxing Violence And Sensuality

Genres:Drama, Romance, Sport 

Storyline
Rocky Balboa is a struggling boxer trying to make the big time. Working in a meat factory in Philadelphia for a pittance, he also earns extra cash as a debt collector. When heavyweight champion Apollo Creed visits Philadelphia, his managers want to set up an exhibition match between Creed and a struggling boxer, touting the fight as a chance for a "nobody" to become a "somebody". The match is supposed to be easily won by Creed, but someone forgot to tell Rocky, who sees this as his only shot at the big time. 



Cast
Cast overview, first billed only: 
  Sylvester Stallone  ...  Rocky Balboa  
  Talia Shire  ...  Adrian Pennino  
  Burt Young  ...  Paulie Pennino  
  Carl Weathers  ...  Apollo Creed  
  Burgess Meredith  ...  Mickey Goldmill  
  Thayer David  ...  George Jergens  
  Joe Spinell  ...  Tony Gazzo  
  Jimmy Gambina  ...  Mike  
  Bill Baldwin  ...  Fight Announcer  
  Al Silvani  ...  Cut Man (as Al Salvani)  
  George Memmoli  ...  Ice Rink Attendant  
  Jodi Letizia  ...  Marie  
  Diana Lewis  ...  TV Commentator  
  George O'Hanlon  ...  TV Commentator  
  Larry Carroll  ...  TV Interviewer 


[img]http://torrent-stats.info/924c/9ce8c758.png[/img]

See the full size 1920x1040 PNG files at the link below
 
http://s1015.photobucket.com/albums/af279/tequila-bob/Rocky%201976/ 



Format : Matroska 
File size : 7.97 GiB 
Duration : 1h 59mn 
Overall bit rate : 9 547 Kbps 
Encoded date : UTC 2010-12-10 18:37:07 
Writing application : mkvmerge v4.4.0 ('Die Wiederkehr') built on Oct 31 2010 21:52:48 
Writing library : libebml v1.0.0 + libmatroska v1.0.0 

Video 
ID : 1 
Format : AVC 
Format/Info : Advanced Video Codec 
Format profile : High@L4.1 
Format settings, CABAC : Yes 
Format settings, ReFrames : 5 frames 
Muxing mode : Container profile=Unknown@4.1 
Codec ID : V_MPEG4/ISO/AVC 
Duration : 1h 59mn 
Bit rate : 8 009 Kbps 
Width : 1 920 pixels 
Height : 1 040 pixels 
Display aspect ratio : 16:9 
Frame rate : 23.976 fps 
Color space : YUV 
Chroma subsampling : 4:2:0 
Bit depth : 8 bits 
Scan type : Progressive 
Bits/(Pixel*Frame) : 0.167 
Stream size : 6.55 GiB (82%) 
Writing library : x264 core 98 r1649 c54c47d 
Encoding settings : cabac=1 / ref=6 / deblock=1:-3:-1 / analyse=0x3:0x133 / me=umh / subme=9 / psy=1 / psy_rd=1.00:0.15 / mixed_ref=1 / me_range=32 / chroma_me=1 / trellis=1 / 8x8dct=1 / cqm=0 / deadzone=21,11 / fast_pskip=0 / chroma_qp_offset=-3 / threads=6 / sliced_threads=0 / nr=0 / decimate=1 / interlaced=0 / constrained_intra=0 / bframes=4 / b_pyramid=1 / b_adapt=1 / b_bias=0 / direct=1 / weightb=1 / weightp=2 / keyint=250 / keyint_min=25 / scenecut=40 / intra_refresh=0 / rc_lookahead=50 / rc=2pass / mbtree=1 / bitrate=8009 / ratetol=1.0 / qcomp=0.60 / qpmin=10 / qpmax=51 / qpstep=4 / cplxblur=20.0 / qblur=0.5 / ip_ratio=1.40 / aq=1:1.50 
Language : English 

Audio 
ID : 2 
Format : DTS 
Format/Info : Digital Theater Systems 
Codec ID : A_DTS 
Duration : 1h 59mn 
Bit rate mode : Constant 
Bit rate : 1 510 Kbps 
Channel(s) : 6 channels 
Channel positions : Front: L C R, Side: L R, LFE 
Sampling rate : 48.0 KHz 
Bit depth : 24 bits 
Video delay : 10ms 
Stream size : 1.26 GiB (16%) 
Title : 3/2+1 
Language : English 

Text #1  
Language : English 
Text #2 
Language : Spanish 
Text #3 
Language : French 
Text #4 
Language : French 
Text #5 
Language : Spanish 
Text #6 
Language : Spanish 

Menu & Chapters 23



See the full size 1920x1040 PNG files at the link below
 
http://s1015.photobucket.com/albums/af279/tequila-bob/Rocky%201976/ 

